<?xml version="1.0" encoding="utf-8"?><svg xmlns="http://www.w3.org/2000/svg" xmlns:xlink="http://www.w3.org/1999/xlink"><symbol viewBox="0 0 1693 1693" shape-rendering="geometricPrecision" text-rendering="geometricPrecision" image-rendering="optimizeQuality" fill-rule="evenodd" clip-rule="evenodd" id="svg--butter" xmlns="http://www.w3.org/2000/svg"><defs><style>.afil0{fill:#2b2a29}</style></defs><g id="aСлой_x0020_1"><rect class="afil0" width="1693" height="423" rx="140" ry="119"/><rect class="afil0" y="635" width="1693" height="423" rx="140" ry="119"/><rect class="afil0" y="1270" width="1693" height="423" rx="140" ry="119"/></g></symbol><symbol viewBox="0 0 4233 1101" shape-rendering="geometricPrecision" text-rendering="geometricPrecision" image-rendering="optimizeQuality" fill-rule="evenodd" clip-rule="evenodd" id="svg--logo_zmei_dev" xmlns="http://www.w3.org/2000/svg"><path d="M-1 244h808v188H-1V244zm426 335h381v187H425V579zM-1 909h807v190H-1V909zm903-666h237v856H902V243zm1231 0h242v856h-242V243zm337 0h808v190h-808V243zm0 333h381v191h-381V576zm0 333h807v190h-807V909zm903-666h238v856h-238V243zm570 0h286v856h-286V243zM3896 7v141h-191l95-70 96-71zm-285 1092l332-473V247l-332 472v380zM1139 243l498 565v291h-119l-379-429V243zm994-1l-496 566v291h120l376-430V242z"/></symbol></svg>